<?xml version="1.0" encoding="UTF-8" standalone="no"?>
<!-- Created with Inkscape (http://www.inkscape.org/) -->

<svg
   width="210mm"
   height="297mm"
   viewBox="0 0 210 297"
   version="1.1"
   id="svg5"
   inkscape:version="1.1 (ce6663b3b7, 2021-05-25)"
   sodipodi:docname="icon.svg"
   xmlns:inkscape="http://www.inkscape.org/namespaces/inkscape"
   xmlns:sodipodi="http://sodipodi.sourceforge.net/DTD/sodipodi-0.dtd"
   xmlns="http://www.w3.org/2000/svg"
   xmlns:svg="http://www.w3.org/2000/svg">
  <sodipodi:namedview
     id="namedview7"
     pagecolor="#505050"
     bordercolor="#eeeeee"
     borderopacity="1"
     inkscape:pageshadow="0"
     inkscape:pageopacity="0"
     inkscape:pagecheckerboard="0"
     inkscape:document-units="mm"
     showgrid="false"
     inkscape:zoom="1.0507202"
     inkscape:cx="1579.3928"
     inkscape:cy="506.31937"
     inkscape:window-width="1920"
     inkscape:window-height="1016"
     inkscape:window-x="0"
     inkscape:window-y="34"
     inkscape:window-maximized="1"
     inkscape:current-layer="layer1"
     showguides="true"
     inkscape:guide-bbox="true">
    <sodipodi:guide
       position="30.73606,181.86015"
       orientation="0,-1"
       id="guide2811" />
    <sodipodi:guide
       position="22.065329,167.74687"
       orientation="0,-1"
       id="guide3350" />
    <sodipodi:guide
       position="8.9784547,143.68215"
       orientation="0,-1"
       id="guide3352" />
    <sodipodi:guide
       position="10.889865,129.34765"
       orientation="0,-1"
       id="guide3354" />
    <sodipodi:guide
       position="40.56179,216.78212"
       orientation="1,0"
       id="guide3356" />
    <sodipodi:guide
       position="69.425632,208.11025"
       orientation="1,0"
       id="guide3360" />
    <sodipodi:guide
       position="26.352517,56.266195"
       orientation="1,0"
       id="guide4250" />
    <sodipodi:guide
       position="54.54128,211.83634"
       orientation="1,0"
       id="guide2335" />
    <sodipodi:guide
       position="84.043161,224.8867"
       orientation="1,0"
       id="guide2337" />
    <sodipodi:guide
       position="26.352517,197.11467"
       orientation="1,0"
       id="guide2339" />
    <sodipodi:guide
       position="98.821938,216.87411"
       orientation="1,0"
       id="guide2341" />
    <sodipodi:guide
       position="22.613308,202.6295"
       orientation="1,0"
       id="guide2609" />
    <sodipodi:guide
       position="32.584531,185.53598"
       orientation="0,-1"
       id="guide2967" />
  </sodipodi:namedview>
  <defs
     id="defs2">
    <rect
       x="156.4535"
       y="770.64636"
       width="35.715731"
       height="28.539922"
       id="rect9059" />
    <rect
       x="-175.11377"
       y="384.26271"
       width="151.04848"
       height="57.729684"
       id="rect13569" />
    <rect
       x="-175.11377"
       y="384.2627"
       width="151.04848"
       height="57.729683"
       id="rect13569-3" />
    <rect
       x="156.45351"
       y="770.64636"
       width="35.715733"
       height="28.539923"
       id="rect9059-2" />
    <rect
       x="156.45351"
       y="770.64636"
       width="35.715733"
       height="28.539923"
       id="rect9059-23" />
    <rect
       x="156.45351"
       y="770.64636"
       width="35.715733"
       height="28.539923"
       id="rect9059-23-5" />
    <rect
       x="156.45351"
       y="770.64636"
       width="35.715733"
       height="28.539923"
       id="rect9059-23-2" />
  </defs>
  <g
     inkscape:label="Layer 1"
     inkscape:groupmode="layer"
     id="layer1">
    <path
       id="path68103"
       style="opacity:0.9;fill:#000000;fill-opacity:1;stroke-width:0.702"
       d="m 399.26614,106.09298 a 41.735351,41.735351 0 0 0 -14.77119,14.23634 v 44.04951 a 41.735351,41.735351 0 0 0 35.41696,19.71042 41.735351,41.735351 0 0 0 41.73492,-41.73492 41.735351,41.735351 0 0 0 -21.07468,-36.26135 z"
       inkscape:export-filename="/home/santi/dev/flutter/timetable24/assets/app_icon.png"
       inkscape:export-xdpi="96"
       inkscape:export-ydpi="96" />
    <path
       id="path68103-2"
       style="opacity:0.9;fill:#62bee7;fill-opacity:1;stroke-width:2.65323"
       d="M 788.65234 105.68945 A 157.73991 157.73991 0 0 0 630.91406 263.42773 A 157.73991 157.73991 0 0 0 631.8125 279.29297 A 157.73991 157.73991 0 0 0 692.92383 388.42773 L 692.92383 369.7207 L 687.50977 369.7207 C 682.65848 369.7207 681.92338 369.54872 680.44336 368.06836 C 678.8295 366.45454 678.36948 364.19942 679.20898 362.01172 C 679.95559 360.06613 683.22015 358.95312 688.17969 358.95312 L 692.92383 358.95312 L 692.92383 337.49023 L 692.92383 316.02539 L 687.47461 315.77734 C 682.49236 315.55095 681.88706 315.36962 680.4082 313.65039 C 678.42282 311.34223 678.35285 309.21868 680.18555 306.88867 C 681.49527 305.22368 681.92656 305.11523 687.25195 305.11523 L 692.92383 305.11523 L 692.92383 264.73633 L 692.92383 224.35938 L 687.25195 224.35938 C 681.92656 224.35938 681.49527 224.25089 680.18555 222.58594 C 678.35282 220.25593 678.42282 218.13238 680.4082 215.82422 C 681.88706 214.10499 682.49236 213.92159 687.47461 213.69531 L 692.92383 213.44922 L 692.92383 192.32031 L 692.92383 171.19336 L 687.50977 171.19336 C 682.65848 171.19336 681.92338 171.021 680.44336 169.54102 C 678.65171 167.74937 678.2962 164.82745 679.6543 163.05859 C 681.15057 161.10968 683.36328 160.42578 688.16797 160.42578 L 692.92383 160.42578 L 692.92383 155.46875 C 692.92383 149.17225 694.31992 146.9668 698.30664 146.9668 C 702.2934 146.9668 703.69141 149.17225 703.69141 155.46875 L 703.69141 160.42578 L 725.22656 160.42578 L 746.76172 160.42578 L 746.76172 155.16016 C 746.76172 150.52532 746.94768 149.71745 748.31836 148.42969 C 750.59008 146.2955 754.32883 146.44421 756.13477 148.74023 C 757.2591 150.16958 757.5293 151.47337 757.5293 155.46875 L 757.5293 160.42578 L 778.32031 160.42578 L 799.11133 160.42578 L 799.35742 154.97656 C 799.57285 150.23189 799.80931 149.36053 801.18555 148.24609 C 803.35072 146.49285 806.92134 146.58559 808.64844 148.43945 C 809.78657 149.66107 810.02148 150.80975 810.02148 155.16992 L 810.02148 160.42578 L 832.90234 160.42578 L 855.7832 160.42578 L 855.7832 155.46875 C 855.7832 149.17225 857.17926 146.9668 861.16602 146.9668 C 865.15277 146.9668 866.55078 149.17225 866.55078 155.46875 L 866.55078 160.42578 L 888.75781 160.42578 L 908.10352 160.42578 A 157.73991 157.73991 0 0 0 788.65234 105.68945 z M 692.92383 388.42773 L 692.92383 388.6875 A 157.73991 157.73991 0 0 0 703.68945 396.20703 L 703.68945 395.93945 A 157.73991 157.73991 0 0 1 692.92383 388.42773 z M 703.69141 171.19336 L 703.69141 192.39258 L 703.69141 213.5918 L 725.22656 213.5918 L 746.76172 213.5918 L 746.76172 192.39258 L 746.76172 171.19336 L 725.22656 171.19336 L 703.69141 171.19336 z M 757.5293 171.19336 L 757.5293 192.39258 L 757.5293 213.5918 L 778.39062 213.5918 L 799.25391 213.5918 L 799.25391 192.39258 L 799.25391 171.19336 L 778.39062 171.19336 L 757.5293 171.19336 z M 810.02148 171.19336 L 810.02148 192.39258 L 810.02148 213.5918 L 832.90234 213.5918 L 855.7832 213.5918 L 855.7832 192.39258 L 855.7832 171.19336 L 832.90234 171.19336 L 810.02148 171.19336 z M 866.55078 171.19336 L 866.55078 192.39258 L 866.55078 213.5918 L 888.75781 213.5918 L 910.9668 213.5918 L 910.9668 192.39258 L 910.9668 171.19336 L 888.75781 171.19336 L 866.55078 171.19336 z M 921.73438 178.74609 L 921.73438 192.37109 L 921.73438 213.55078 L 938.32031 213.6543 A 157.73991 157.73991 0 0 0 937.76172 211.97852 A 157.73991 157.73991 0 0 0 935.93945 206.98438 A 157.73991 157.73991 0 0 0 933.4375 200.8418 A 157.73991 157.73991 0 0 0 932.95898 199.74219 A 157.73991 157.73991 0 0 0 921.73438 178.74609 z M 938.73828 214.9043 A 157.73991 157.73991 0 0 1 941.29883 223.6875 A 157.73991 157.73991 0 0 0 938.73828 214.9043 z M 855.7832 224.3418 L 833.07031 224.51953 L 810.35742 224.69727 L 810.18164 264.06641 C 810.08564 285.71932 810.15131 303.8127 810.33008 304.27539 C 810.57877 304.92524 815.78448 305.11719 833.2168 305.11719 L 855.7832 305.11719 L 855.7832 264.72852 L 855.7832 224.3418 z M 921.73438 224.35742 L 921.73438 264.73633 L 921.73438 305.11523 L 940.54883 305.11523 A 157.73991 157.73991 0 0 0 946.34766 263.13477 A 157.73991 157.73991 0 0 0 943.65625 234.2207 A 157.73991 157.73991 0 0 0 943.50977 233.4668 A 157.73991 157.73991 0 0 0 941.70898 225.33203 A 157.73991 157.73991 0 0 0 941.4668 224.35742 L 921.73438 224.35742 z M 940.54883 305.11523 A 157.73991 157.73991 0 0 1 937.17188 315.82617 L 937.31836 315.82617 A 157.73991 157.73991 0 0 0 940.67383 305.11523 L 940.54883 305.11523 z M 937.17188 315.82617 L 921.73438 315.92188 L 921.73438 337.4375 L 921.73438 347.54297 A 157.73991 157.73991 0 0 0 937.17188 315.82617 z M 921.73438 347.54297 A 157.73991 157.73991 0 0 1 904.8457 369.7207 L 905.14453 369.7207 A 157.73991 157.73991 0 0 0 921.73438 347.91016 L 921.73438 347.54297 z M 904.8457 369.7207 L 888.75781 369.7207 L 866.55078 369.7207 L 866.55078 400.23047 A 157.73991 157.73991 0 0 0 904.8457 369.7207 z M 866.55078 400.23047 A 157.73991 157.73991 0 0 1 855.7832 405.80469 L 855.7832 406.11914 A 157.73991 157.73991 0 0 0 866.55078 400.54883 L 866.55078 400.23047 z M 855.7832 405.80469 L 855.7832 403.25195 L 855.7832 369.7207 L 832.90234 369.7207 L 810.02148 369.7207 L 810.02148 403.36914 C 810.02148 410.21912 810.01316 414.98883 809.99805 419.34961 A 157.73991 157.73991 0 0 0 855.7832 405.80469 z M 809.99805 419.34961 A 157.73991 157.73991 0 0 1 799.52148 420.4668 C 799.52267 420.59128 799.52419 420.63906 799.52539 420.76172 A 157.73991 157.73991 0 0 0 809.99609 419.65039 C 809.99654 419.5254 809.99762 419.47637 809.99805 419.34961 z M 799.52148 420.4668 C 799.4784 415.96421 799.44278 410.67989 799.40234 403.34961 L 799.2168 369.7207 L 778.37305 369.7207 L 757.5293 369.7207 L 757.5293 402.88281 C 757.5293 410.66637 757.46421 413.02096 757.43359 417.66211 A 157.73991 157.73991 0 0 0 788.60742 420.87305 A 157.73991 157.73991 0 0 0 799.52148 420.4668 z M 757.43359 417.66211 A 157.73991 157.73991 0 0 1 746.81641 415.125 A 157.73991 157.73991 0 0 0 746.81445 415.125 C 746.81474 415.23163 746.81611 415.30254 746.81641 415.4082 A 157.73991 157.73991 0 0 0 757.42969 417.94727 C 757.43043 417.83912 757.43287 417.77123 757.43359 417.66211 z M 746.81445 415.125 C 746.80311 411.35318 746.78698 408.38876 746.7832 403.20117 L 746.76172 369.7207 L 725.22656 369.7207 L 703.69141 369.7207 L 703.69141 395.93945 A 157.73991 157.73991 0 0 0 746.81445 415.125 z M 703.69141 224.36133 L 703.69141 264.74805 L 703.69141 305.13672 L 725.05859 304.95898 L 746.42383 304.78125 L 746.59766 264.57031 L 746.77148 224.36133 L 725.23047 224.36133 L 703.69141 224.36133 z M 757.5293 224.36133 L 757.5293 264.73828 L 757.5293 305.11719 L 778.39062 305.11719 L 799.25391 305.11719 L 799.25391 264.73828 L 799.25391 224.36133 L 778.39062 224.36133 L 757.5293 224.36133 z M 866.55078 224.36133 L 866.55078 264.73828 L 866.55078 305.11719 L 888.75781 305.11719 L 910.9668 305.11719 L 910.9668 264.73828 L 910.9668 224.36133 L 888.75781 224.36133 L 866.55078 224.36133 z M 703.69141 315.88477 L 703.69141 337.41992 L 703.69141 358.95508 L 725.22656 358.95508 L 746.76172 358.95508 L 746.76172 337.41992 L 746.76172 315.88477 L 725.22656 315.88477 L 703.69141 315.88477 z M 757.5293 315.88477 L 757.5293 337.41992 L 757.5293 358.95508 L 778.39062 358.95508 L 799.25391 358.95508 L 799.25391 337.41992 L 799.25391 315.88477 L 778.39062 315.88477 L 757.5293 315.88477 z M 810.02148 315.88477 L 810.02148 337.41992 L 810.02148 358.95508 L 832.90234 358.95508 L 855.7832 358.95508 L 855.7832 337.41992 L 855.7832 315.88477 L 832.90234 315.88477 L 810.02148 315.88477 z M 866.55078 315.88477 L 866.55078 337.41992 L 866.55078 358.95508 L 888.75781 358.95508 L 910.9668 358.95508 L 910.9668 337.41992 L 910.9668 315.88477 L 888.75781 315.88477 L 866.55078 315.88477 z "
       transform="scale(0.26458333)" />
    <circle
       style="opacity:0.9;fill:#62bee7;fill-opacity:1;stroke-width:0.702"
       id="path68103-36"
       cx="55.520603"
       cy="231.91612"
       r="41.735352"
       inkscape:export-filename="/home/santi/dev/flutter/timetable24/assets/app_icon.png"
       inkscape:export-xdpi="96"
       inkscape:export-ydpi="96" />
    <rect
       style="opacity:0.9;fill:#ffcc00;stroke-width:0.471252"
       id="rect120"
       width="58.838306"
       height="113.07494"
       x="-56.687561"
       y="88.06179"
       inkscape:export-filename="/home/santi/Desktop/splash.png"
       inkscape:export-xdpi="96"
       inkscape:export-ydpi="96" />
    <text
       xml:space="preserve"
       transform="matrix(0.26458333,0,0,0.26458333,-1.1141906,57.620191)"
       id="text13567-4"
       style="font-size:24px;line-height:0.95;font-family:'Roboto Condensed';-inkscape-font-specification:'Roboto Condensed, Normal';text-align:center;letter-spacing:0px;word-spacing:0px;white-space:pre;shape-inside:url(#rect13569-3)"
       x="85.300026"
       y="0"
       inkscape:export-filename="/home/santi/Desktop/splash.png"
       inkscape:export-xdpi="96"
       inkscape:export-ydpi="96"><tspan
         x="-144.45996"
         y="402.73021"
         id="tspan24135"><tspan
           style="font-weight:bold;-inkscape-font-specification:'Roboto Condensed,  Bold'"
           id="tspan24133">¡Cada día </tspan></tspan><tspan
         x="-130.2627"
         y="425.5302"
         id="tspan24139"><tspan
           style="font-weight:bold;-inkscape-font-specification:'Roboto Condensed,  Bold'"
           id="tspan24137">mejor!</tspan></tspan></text>
    <g
       id="g49263"
       transform="translate(-0.14924992,-11.14486)"
       inkscape:export-filename="/home/santi/Desktop/splash.png"
       inkscape:export-xdpi="96"
       inkscape:export-ydpi="96">
      <path
         d="m -21.084429,147.53294 c -1.260864,-0.76873 -1.740297,-2.07437 -1.746311,-4.75572 -0.0079,-3.51228 1.048084,-4.82447 3.86486,-4.80265 1.80462,0.014 2.98274,0.45865 3.8054,1.43633 0.66171,0.78639 0.6939,0.95548 0.59115,3.10456 -0.12619,2.63941 -0.70776,4.03685 -2.0634,4.95811 -1.15342,0.78383 -3.218267,0.81137 -4.451699,0.0594 z"
         style="fill:#ffffff;fill-opacity:1;stroke-width:0.0700042"
         id="path2566"
         sodipodi:nodetypes="ssssssss" />
      <path
         id="path1022"
         style="fill:#ffffff;fill-opacity:1;stroke-width:0.0700042"
         d="m -35.788127,137.94902 c -0.854152,0.003 -1.665936,0.14344 -2.248958,0.44494 -1.18187,0.61117 -1.664777,1.88481 -1.675866,4.42092 -0.01114,2.54948 0.732759,4.27929 2.172475,5.0524 1.412005,0.75823 3.718013,0.54021 4.751131,-0.44958 1.087798,-1.04217 1.598869,-2.74157 1.598869,-5.31441 0,-1.78437 -0.09553,-2.28765 -0.543118,-2.85667 -0.639167,-0.81257 -2.423879,-1.30396 -4.054533,-1.2976 z"
         sodipodi:nodetypes="ssssssss" />
      <path
         style="fill:#000000;stroke-width:0.264583"
         d="m -27.881527,160.84208 c -1.500216,-0.36865 -4.99927,-2.32429 -6.322605,-3.53375 -1.948557,-1.78087 -1.917402,-2.23846 0.03875,-0.56915 1.871722,1.59726 2.860868,2.19263 5.1781,3.11673 1.621419,0.64661 2.04089,0.70621 4.131196,0.58703 1.923018,-0.10964 2.609485,-0.27644 3.957939,-0.96167 1.753377,-0.891 1.881237,-0.93393 1.878127,-0.63058 -0.003,0.33151 -1.897386,1.30404 -3.420412,1.75633 -1.348092,0.40034 -4.25707,0.52601 -5.441095,0.23506 z m -9.657291,-12.97357 c -1.439718,-0.77311 -2.183609,-2.50325 -2.172476,-5.05273 0.01108,-2.53611 0.493828,-3.80974 1.6757,-4.42091 1.696065,-0.87707 5.329454,-0.38564 6.303422,0.85256 0.447588,0.56902 0.543354,1.07254 0.543354,2.85691 0,2.57284 -0.511318,4.27207 -1.599115,5.31424 -1.03312,0.98979 -3.338881,1.20816 -4.750885,0.44993 z m 3.620474,-0.31378 c 1.363703,-0.61914 1.84387,-1.49211 2.223065,-4.04163 0.553392,-3.72075 -0.431106,-4.96919 -3.918644,-4.96919 -1.804962,0 -2.026791,0.0612 -2.714335,0.74874 -0.574721,0.57472 -0.793265,1.10514 -0.940337,2.28227 -0.387214,3.09915 0.804659,5.75576 2.791917,6.22299 1.323327,0.31114 1.341125,0.30945 2.558334,-0.24318 z m -2.466461,-3.58686 c -0.234057,-0.60994 0.09473,-1.19062 0.674151,-1.19062 0.654909,0 0.900509,0.38051 0.684626,1.0607 -0.195709,0.61662 -1.137458,0.70667 -1.358777,0.12992 z m 15.300376,3.5651 c -1.260864,-0.76873 -1.740297,-2.07437 -1.746311,-4.75572 -0.0079,-3.51228 1.048084,-4.82447 3.86486,-4.80265 1.80462,0.014 2.98274,0.45865 3.8054,1.43633 0.66171,0.78639 0.6939,0.95548 0.59115,3.10456 -0.12619,2.63941 -0.70776,4.03685 -2.0634,4.95811 -1.15342,0.78383 -3.218267,0.81137 -4.451699,0.0594 z m 4.535359,-0.78328 c 1.05042,-0.92228 1.60568,-2.56952 1.62153,-4.81039 0.009,-1.24183 -0.10303,-1.62162 -0.65086,-2.21088 -0.3638,-0.39132 -0.95912,-0.8282 -1.32292,-0.97085 -1.02454,-0.40174 -3.416007,-0.28996 -4.154925,0.1942 -1.856931,1.2167 -1.913179,6.22509 -0.08828,7.86037 0.6756,0.60541 1.054123,0.72761 2.253795,0.72761 1.22325,0 1.57824,-0.11977 2.34166,-0.79006 z m -2.9024,-3.0464 c -0.2096,-0.54621 0.0746,-1.19063 0.52508,-1.19063 0.52965,0 1.05407,0.71372 0.87235,1.18726 -0.19836,0.51691 -1.19944,0.51933 -1.39743,0.003 z"
         id="path21"
         sodipodi:nodetypes="sssssscssssssssssssssssssssssssssssscsssssscsscc" />
    </g>
    <text
       xml:space="preserve"
       transform="matrix(0.26458333,0,0,0.26458333,-1.0571732,-0.17818453)"
       id="text13567"
       style="font-size:29.3333px;line-height:0.95;font-family:'Roboto Condensed';-inkscape-font-specification:'Roboto Condensed, Normal';text-align:center;letter-spacing:0px;word-spacing:0px;white-space:pre;shape-inside:url(#rect13569)"
       x="85.300026"
       y="0"
       inkscape:export-filename="/home/santi/Desktop/splash.png"
       inkscape:export-xdpi="96"
       inkscape:export-ydpi="96"><tspan
         x="-171.6617"
         y="406.8343"
         id="tspan24143"><tspan
           style="font-weight:bold;-inkscape-font-specification:'Roboto Condensed,  Bold'"
           id="tspan24141">¿Cómo te va </tspan></tspan><tspan
         x="-138.29651"
         y="434.70093"
         id="tspan24147"><tspan
           style="font-weight:bold;-inkscape-font-specification:'Roboto Condensed,  Bold'"
           id="tspan24145">el día?</tspan></tspan></text>
    <path
       id="path68103-3"
       style="opacity:0.9;fill:#ffffff;fill-opacity:1;stroke-width:2.65323"
       d="M 134.59375 816.99023 L 134.59375 1014.9141 A 157.73991 157.73991 0 0 0 211.18164 1034.8398 A 157.73991 157.73991 0 0 0 368.91992 877.09961 A 157.73991 157.73991 0 0 0 357.00977 816.99023 L 134.59375 816.99023 z "
       transform="scale(0.26458333)"
       inkscape:export-filename="/home/santi/dev/flutter/timetable24/assets/app_icon.png"
       inkscape:export-xdpi="96"
       inkscape:export-ydpi="96" />
    <path
       style="fill:none;stroke:#000000;stroke-width:0.79375;stroke-linecap:butt;stroke-linejoin:miter;stroke-miterlimit:4;stroke-dasharray:none;stroke-opacity:1"
       d="m 35.611509,216.16186 58.960392,0"
       id="path2846"
       sodipodi:nodetypes="cc"
       inkscape:export-filename="/home/santi/dev/flutter/timetable24/assets/app_icon.png"
       inkscape:export-xdpi="96"
       inkscape:export-ydpi="96" />
    <path
       style="fill:none;stroke:#000000;stroke-width:0.79375;stroke-linecap:butt;stroke-linejoin:miter;stroke-opacity:1;stroke-miterlimit:4;stroke-dasharray:none"
       d="m 35.611509,216.16186 c 0,52.41464 0,52.41464 0,52.41464"
       id="path3656"
       inkscape:export-filename="/home/santi/dev/flutter/timetable24/assets/app_icon.png"
       inkscape:export-xdpi="96"
       inkscape:export-ydpi="96" />
    <path
       style="fill:none;stroke:#000000;stroke-width:0.79375;stroke-linecap:butt;stroke-linejoin:miter;stroke-opacity:1;stroke-miterlimit:4;stroke-dasharray:none"
       d="m 55.910069,216.16186 c 0,57.81312 0,57.81312 0,57.81312"
       id="path3837"
       inkscape:export-filename="/home/santi/dev/flutter/timetable24/assets/app_icon.png"
       inkscape:export-xdpi="96"
       inkscape:export-ydpi="96" />
    <path
       style="fill:none;stroke:#000000;stroke-width:0.79375;stroke-linecap:butt;stroke-linejoin:miter;stroke-opacity:1;stroke-miterlimit:4;stroke-dasharray:none"
       d="m 77.098916,216.16186 v 51.91688"
       id="path3839"
       inkscape:export-filename="/home/santi/dev/flutter/timetable24/assets/app_icon.png"
       inkscape:export-xdpi="96"
       inkscape:export-ydpi="96" />
    <path
       style="fill:none;stroke:#000000;stroke-width:0.79375;stroke-linecap:butt;stroke-linejoin:miter;stroke-opacity:1;stroke-miterlimit:4;stroke-dasharray:none"
       d="m 55.910069,228.09172 h 41.44146"
       id="path3841"
       inkscape:export-filename="/home/santi/dev/flutter/timetable24/assets/app_icon.png"
       inkscape:export-xdpi="96"
       inkscape:export-ydpi="96" />
    <path
       style="fill:none;stroke:#000000;stroke-width:0.79375;stroke-linecap:butt;stroke-linejoin:miter;stroke-opacity:1;stroke-miterlimit:4;stroke-dasharray:none"
       d="M 77.098916,249.63668 H 93.630667"
       id="path3843"
       inkscape:export-filename="/home/santi/dev/flutter/timetable24/assets/app_icon.png"
       inkscape:export-xdpi="96"
       inkscape:export-ydpi="96" />
    <path
       style="fill:none;stroke:#000000;stroke-width:0.79375;stroke-linecap:butt;stroke-linejoin:miter;stroke-opacity:1;stroke-miterlimit:4;stroke-dasharray:none"
       d="M 55.910069,261.74459 H 85.050343"
       id="path3845"
       inkscape:export-filename="/home/santi/dev/flutter/timetable24/assets/app_icon.png"
       inkscape:export-xdpi="96"
       inkscape:export-ydpi="96" />
    <path
       style="fill:none;stroke:#000000;stroke-width:0.79375;stroke-linecap:butt;stroke-linejoin:miter;stroke-miterlimit:4;stroke-dasharray:none;stroke-opacity:1"
       d="m 55.910069,249.63668 -20.29856,-0.52926"
       id="path3847"
       sodipodi:nodetypes="cc"
       inkscape:export-filename="/home/santi/dev/flutter/timetable24/assets/app_icon.png"
       inkscape:export-xdpi="96"
       inkscape:export-ydpi="96" />
    <path
       id="rect4432"
       style="opacity:0.9;fill:#008000;stroke-width:0.79375;stroke-miterlimit:4;stroke-dasharray:none"
       d="m 36.140625,217.2207 c 0,10.62891 0,21.25782 0,31.88672 6.413411,0 12.826823,0 19.240234,0 0,-10.80534 0,-21.61068 0,-32.41601 -6.413411,0 -12.826823,0 -19.240234,0 0,0.17643 0,0.35286 0,0.52929 z"
       inkscape:export-filename="/home/santi/dev/flutter/timetable24/assets/app_icon.png"
       inkscape:export-xdpi="96"
       inkscape:export-ydpi="96" />
    <path
       id="rect4436"
       style="opacity:0.9;fill:#ffd42a;stroke-width:0.79375;stroke-miterlimit:4;stroke-dasharray:none"
       d="m 56.439453,261.21484 c 6.710287,0 13.420573,0 20.130859,0 0,-10.86458 10e-7,-21.72916 0,-32.59375 -6.710286,0 -13.420572,0 -20.130859,0 0,10.86459 0,21.72917 0,32.59375 z"
       inkscape:export-filename="/home/santi/dev/flutter/timetable24/assets/app_icon.png"
       inkscape:export-xdpi="96"
       inkscape:export-ydpi="96" />
    <text
       xml:space="preserve"
       transform="matrix(0.57389534,0,0,0.72629783,-44.74035,-358.15403)"
       id="text9057"
       style="font-size:13.3333px;line-height:1.25;font-family:'Roboto Condensed';-inkscape-font-specification:'Roboto Condensed, Normal';letter-spacing:0px;word-spacing:0px;white-space:pre;shape-inside:url(#rect9059)"
       inkscape:export-filename="/home/santi/dev/flutter/timetable24/assets/app_icon.png"
       inkscape:export-xdpi="96"
       inkscape:export-ydpi="96"><tspan
         x="156.45312"
         y="782.90673"
         id="tspan24149">L</tspan></text>
    <text
       xml:space="preserve"
       transform="matrix(0.38129032,0,0,0.38129032,-33.928849,-80.313384)"
       id="text9057-7"
       style="font-size:13.3333px;line-height:1.25;font-family:'Roboto Condensed';-inkscape-font-specification:'Roboto Condensed, Normal';letter-spacing:0px;word-spacing:0px;white-space:pre;shape-inside:url(#rect9059-23)"
       inkscape:export-filename="/home/santi/dev/flutter/timetable24/assets/app_icon.png"
       inkscape:export-xdpi="96"
       inkscape:export-ydpi="96"><tspan
         x="156.45312"
         y="782.90673"
         id="tspan24151">7:00</tspan></text>
    <text
       xml:space="preserve"
       transform="matrix(0.38129032,0,0,0.38129032,-34.553864,-68.755523)"
       id="text9057-7-9"
       style="font-size:13.3333px;line-height:1.25;font-family:'Roboto Condensed';-inkscape-font-specification:'Roboto Condensed, Normal';letter-spacing:0px;word-spacing:0px;white-space:pre;shape-inside:url(#rect9059-23-5)"
       inkscape:export-filename="/home/santi/dev/flutter/timetable24/assets/app_icon.png"
       inkscape:export-xdpi="96"
       inkscape:export-ydpi="96"><tspan
         x="156.45312"
         y="782.90673"
         id="tspan24153">8:00</tspan></text>
    <text
       xml:space="preserve"
       transform="matrix(0.38129032,0,0,0.38129032,-34.147827,-47.470713)"
       id="text9057-7-2"
       style="font-size:13.3333px;line-height:1.25;font-family:'Roboto Condensed';-inkscape-font-specification:'Roboto Condensed, Normal';letter-spacing:0px;word-spacing:0px;white-space:pre;shape-inside:url(#rect9059-23-2)"
       inkscape:export-filename="/home/santi/dev/flutter/timetable24/assets/app_icon.png"
       inkscape:export-xdpi="96"
       inkscape:export-ydpi="96"><tspan
         x="156.45312"
         y="782.90673"
         id="tspan24155">9:30</tspan></text>
    <text
       xml:space="preserve"
       transform="matrix(0.67308393,0,0,0.77494352,-41.168408,-396.19013)"
       id="text9057-0"
       style="font-size:13.3333px;line-height:1.25;font-family:'Roboto Condensed';-inkscape-font-specification:'Roboto Condensed, Normal';letter-spacing:0px;word-spacing:0px;white-space:pre;shape-inside:url(#rect9059-2)"
       inkscape:export-filename="/home/santi/dev/flutter/timetable24/assets/app_icon.png"
       inkscape:export-xdpi="96"
       inkscape:export-ydpi="96"><tspan
         x="156.45312"
         y="782.90673"
         id="tspan24157">M</tspan></text>
    <path
       id="rect15498"
       style="opacity:0.9;fill:#0066ff;stroke-width:0.79375;stroke-miterlimit:4;stroke-dasharray:none"
       d="m 56.439453,227.5625 c 6.710287,0 13.420573,0 20.130859,0 0,-3.6237 10e-7,-7.2474 0,-10.87109 -6.710286,0 -13.420572,0 -20.130859,0 0,3.62369 0,7.24739 0,10.87109 z"
       inkscape:export-filename="/home/santi/dev/flutter/timetable24/assets/app_icon.png"
       inkscape:export-xdpi="96"
       inkscape:export-ydpi="96" />
    <g
       id="g3506"
       style="fill:#ffffff">
      <path
         style="fill:#ffffff;stroke:#000000;stroke-width:3;stroke-linecap:round;stroke-linejoin:miter;stroke-miterlimit:4;stroke-dasharray:none;stroke-opacity:1"
         d="M 22.613308,115.13985 H 100.78057"
         id="path2492" />
      <path
         style="fill:#ffffff;stroke:#000000;stroke-width:3;stroke-linecap:round;stroke-linejoin:miter;stroke-miterlimit:4;stroke-dasharray:none;stroke-opacity:1"
         d="M 22.613308,129.25313 H 100.78057"
         id="path2492-3" />
      <path
         style="fill:#ffffff;stroke:#000000;stroke-width:3;stroke-linecap:round;stroke-linejoin:miter;stroke-miterlimit:4;stroke-dasharray:none;stroke-opacity:1"
         d="M 22.613308,153.31785 H 100.78057"
         id="path2492-3-6" />
      <path
         style="fill:#ffffff;stroke:#000000;stroke-width:3;stroke-linecap:round;stroke-linejoin:miter;stroke-miterlimit:4;stroke-dasharray:none;stroke-opacity:1"
         d="M 22.613308,167.65235 H 100.78057"
         id="path2492-3-6-7" />
      <path
         style="fill:#ffffff;stroke:#000000;stroke-width:3;stroke-linecap:round;stroke-linejoin:miter;stroke-opacity:1;stroke-miterlimit:4;stroke-dasharray:none"
         d="m 26.352517,111.46402 v 74.78417"
         id="path3312" />
      <path
         style="fill:#ffffff;stroke:#000000;stroke-width:3;stroke-linecap:round;stroke-linejoin:miter;stroke-miterlimit:4;stroke-dasharray:none;stroke-opacity:1"
         d="m 40.56179,111.46401 v 74.78418"
         id="path3312-5" />
      <path
         style="fill:#ffffff;stroke:#000000;stroke-width:3;stroke-linecap:round;stroke-linejoin:miter;stroke-miterlimit:4;stroke-dasharray:none;stroke-opacity:1"
         d="m 54.54128,111.46402 v 74.78417"
         id="path3312-3" />
      <path
         style="fill:#ffffff;stroke:#000000;stroke-width:3;stroke-linecap:round;stroke-linejoin:miter;stroke-miterlimit:4;stroke-dasharray:none;stroke-opacity:1"
         d="m 69.425632,111.46402 v 74.78417"
         id="path3312-56" />
      <path
         style="fill:#ffffff;stroke:#000000;stroke-width:3;stroke-linecap:round;stroke-linejoin:miter;stroke-miterlimit:4;stroke-dasharray:none;stroke-opacity:1"
         d="m 84.043161,111.46402 v 74.78417"
         id="path3312-2" />
    </g>
    <path
       style="opacity:0.9;fill:#ffffff;stroke-width:2.01892;stroke-linecap:round;stroke-miterlimit:4;stroke-dasharray:none;paint-order:fill markers stroke"
       d="m 151.77273,227.21157 c -0.96724,-0.38612 -0.95385,-0.24937 -0.95385,-9.74359 v -8.77423 h -1.43255 c -1.28358,0 -1.47801,-0.0455 -1.86961,-0.43705 -0.427,-0.427 -0.54856,-1.02381 -0.32644,-1.60264 0.19753,-0.51477 1.06115,-0.80924 2.37335,-0.80924 h 1.25525 v -5.67898 -5.67899 l -1.44169,-0.0655 c -1.31822,-0.0599 -1.47833,-0.10808 -1.8696,-0.56296 -0.52531,-0.6107 -0.5438,-1.17257 -0.0589,-1.78904 0.34652,-0.44053 0.4606,-0.46916 1.8696,-0.46916 h 1.50057 v -10.68345 -10.68345 h -1.50057 c -1.409,0 -1.52308,-0.0286 -1.8696,-0.46916 -0.48492,-0.61647 -0.46643,-1.17834 0.0589,-1.78905 0.39127,-0.45488 0.55138,-0.50309 1.8696,-0.56295 l 1.44169,-0.0655 v -5.58996 -5.58996 h -1.43255 c -1.28358,0 -1.47801,-0.0455 -1.86961,-0.43705 -0.47403,-0.47404 -0.56815,-1.24705 -0.20881,-1.71507 0.39589,-0.51564 0.98162,-0.6968 2.25286,-0.6968 h 1.25811 v -1.31142 c 0,-1.66595 0.36963,-2.24973 1.42446,-2.24973 1.05483,0 1.42446,0.58378 1.42446,2.24973 v 1.31142 h 5.69784 5.69784 v -1.39342 c 0,-1.22631 0.0494,-1.43986 0.41211,-1.78058 0.60106,-0.56467 1.58995,-0.52545 2.06777,0.082 0.29748,0.37818 0.36905,0.72346 0.36905,1.78057 v 1.31142 h 5.50092 5.50093 l 0.0655,-1.4419 c 0.057,-1.25536 0.11958,-1.48572 0.48372,-1.78058 0.57287,-0.46388 1.51741,-0.43947 1.97437,0.051 0.30112,0.32321 0.36305,0.62695 0.36305,1.78057 v 1.39089 h 6.05396 6.05395 v -1.31142 c 0,-1.66595 0.36964,-2.24973 1.42447,-2.24973 1.05482,0 1.42446,0.58378 1.42446,2.24973 v 1.31142 h 5.8759 5.87589 v -1.3255 c 0,-1.13328 0.0605,-1.39581 0.41697,-1.81025 0.57213,-0.66515 1.44286,-0.66515 2.01499,0 0.35617,0.41407 0.41697,0.67723 0.41697,1.80497 v 1.32022 l 8.02843,0.0498 8.02843,0.0498 0.34027,0.42035 c 0.47377,0.58527 0.43375,1.37197 -0.0968,1.90249 l -0.43705,0.43705 h -7.93165 -7.93165 v 5.60348 5.60348 l 7.93909,0.0498 7.9391,0.0498 0.42961,0.49959 c 0.52692,0.61276 0.54591,1.17414 0.0606,1.79115 l -0.36904,0.46916 h -7.99967 -7.99966 v 10.68345 10.68345 h 7.99966 7.99967 l 0.36904,0.46916 c 0.48534,0.61701 0.46635,1.17839 -0.0606,1.79115 l -0.42961,0.49958 -7.9391,0.0499 -7.93909,0.0498 v 5.69251 5.69251 h 7.93165 7.93165 l 0.43705,0.43706 c 0.57822,0.57821 0.57822,1.3966 0,1.97482 l -0.43705,0.43705 h -7.93165 -7.93165 v 8.80392 8.80392 l -0.41697,0.48474 c -0.57213,0.66515 -1.44286,0.66515 -2.01499,0 l -0.41697,-0.48474 v -8.80392 -8.80392 h -5.87589 -5.8759 v 8.80392 8.80392 l -0.41697,0.48474 c -0.53567,0.62276 -1.36742,0.65117 -1.98826,0.0679 l -0.4437,-0.41683 v -8.87183 -8.87184 h -6.05395 -6.05396 v 8.90287 c 0,8.66547 -0.01,8.91238 -0.35611,9.259 -0.54145,0.54144 -1.48134,0.53277 -2.04766,-0.0189 -0.34538,-0.33644 -0.35761,-0.61514 -0.40544,-9.24495 l -0.0493,-8.89804 h -5.51498 -5.51497 v 8.77423 c 0,7.75695 -0.0331,8.82141 -0.28506,9.1812 -0.39029,0.55722 -1.02696,0.77455 -1.61455,0.55114 -0.96211,-0.36579 -0.93756,-0.11477 -0.94365,-9.64821 l -0.006,-8.85836 h -5.69784 -5.69784 v 8.80392 8.80392 l -0.40063,0.44068 c -0.47521,0.52272 -0.97078,0.67835 -1.49444,0.4693 z m 13.29075,-27.06459 v -5.69784 h -5.69784 -5.69784 v 5.69784 5.69784 h 5.69784 5.69784 z m 13.88849,0 v -5.69784 h -5.51978 -5.51978 v 5.69784 5.69784 h 5.51978 5.51978 z m 14.95683,0 v -5.69784 h -6.05395 -6.05396 v 5.69784 5.69784 h 6.05396 6.05395 z m 14.60072,0 v -5.69784 h -5.87589 -5.8759 v 5.69784 5.69784 h 5.8759 5.87589 z m -43.48915,-19.27473 0.0459,-10.63893 h -5.69924 -5.69924 v 10.68595 10.68595 l 5.65333,-0.047 5.65332,-0.047 z m 13.9316,0.0445 V 170.2333 h -5.51978 -5.51978 v 10.68345 10.68345 h 5.51978 5.51978 z m 14.95683,-0.002 v -10.68581 l -6.00944,0.0469 -6.00944,0.0469 -0.0462,10.41636 c -0.0254,5.729 -0.008,10.51652 0.0389,10.63894 0.0658,0.17194 1.44334,0.22257 6.05565,0.22257 h 5.97051 z m 14.60072,0.002 V 170.2333 h -5.87589 -5.8759 v 10.68345 10.68345 h 5.8759 5.87589 z m -43.44604,-19.14119 v -5.60881 h -5.69784 -5.69784 v 5.60881 5.60881 h 5.69784 5.69784 z m 13.88849,0 v -5.60881 h -5.51978 -5.51978 v 5.60881 5.60881 h 5.51978 5.51978 z m 14.95683,0 v -5.60881 h -6.05395 -6.05396 v 5.60881 5.60881 h 6.05396 6.05395 z m 14.60072,0 v -5.60881 h -5.87589 -5.8759 v 5.60881 5.60881 h 5.8759 5.87589 z"
       id="path3592" />
    <rect
       style="opacity:0.9;fill:#d40600;stroke-width:3;stroke-linecap:round;stroke-miterlimit:4;stroke-dasharray:none;paint-order:fill markers stroke;fill-opacity:1"
       id="rect4567"
       width="11.039636"
       height="35.434013"
       x="200.42963"
       y="45.29491"
       ry="1.385853e-05" />
    <rect
       style="opacity:1;fill:#00ad13;fill-opacity:1;stroke-width:3;stroke-linecap:round;stroke-miterlimit:4;stroke-dasharray:none;paint-order:fill markers stroke"
       id="rect4779"
       width="11.395686"
       height="35.611263"
       x="186.18501"
       y="59.362267"
       ry="1.385853e-05" />
    <rect
       style="opacity:1;fill:#ff00af;fill-opacity:1;stroke-width:3;stroke-linecap:round;stroke-miterlimit:4;stroke-dasharray:none;paint-order:fill markers stroke"
       id="rect6607"
       width="12.018905"
       height="21.277771"
       x="214.40706"
       y="59.451149"
       ry="1.385853e-05" />
    <rect
       style="opacity:1;fill:#ffd800;fill-opacity:1;stroke-width:3;stroke-linecap:round;stroke-miterlimit:4;stroke-dasharray:none;paint-order:fill markers stroke"
       id="rect6953"
       width="11.395686"
       height="11.217921"
       x="186.18501"
       y="45.29491"
       ry="1.385853e-05" />
    <rect
       style="opacity:1;fill:#ffffff;fill-opacity:1;stroke-width:3;stroke-linecap:round;stroke-miterlimit:4;stroke-dasharray:none;paint-order:fill markers stroke"
       id="rect6955"
       width="12.107788"
       height="11.217921"
       x="214.31818"
       y="45.29491"
       ry="1.385853e-05" />
    <rect
       style="opacity:1;fill:#ffd800;fill-opacity:1;stroke-width:3;stroke-linecap:round;stroke-miterlimit:4;stroke-dasharray:none;paint-order:fill markers stroke"
       id="rect6957"
       width="11.751739"
       height="11.217921"
       x="229.27489"
       y="45.29491"
       ry="1.385853e-05" />
    <rect
       style="opacity:1;fill:#0081ed;fill-opacity:1;stroke-width:3;stroke-linecap:round;stroke-miterlimit:4;stroke-dasharray:none;paint-order:fill markers stroke"
       id="rect6959"
       width="11.751739"
       height="35.611263"
       x="229.27489"
       y="59.362267"
       ry="1.385853e-05" />
    <rect
       style="opacity:1;fill:#ffd800;fill-opacity:1;stroke-width:3;stroke-linecap:round;stroke-miterlimit:4;stroke-dasharray:none;paint-order:fill markers stroke"
       id="rect6961"
       width="12.107788"
       height="11.395686"
       x="214.31818"
       y="83.577843"
       ry="1.385853e-05" />
    <rect
       style="opacity:1;fill:#ffffff;fill-opacity:1;stroke-width:3;stroke-linecap:round;stroke-miterlimit:4;stroke-dasharray:none;paint-order:fill markers stroke"
       id="rect6963"
       width="11.039636"
       height="11.395686"
       x="200.42963"
       y="83.577843"
       ry="1.385853e-05" />
    <path
       style="color:#000000;opacity:1;fill:#ffffff;stroke-width:0.702;-inkscape-stroke:none;fill-opacity:1"
       d="m 419.86093,100.65753 a 41.735351,41.735351 0 0 0 -41.73492,41.73492 41.735351,41.735351 0 0 0 0.23771,4.19767 41.735351,41.735351 0 0 0 16.16904,28.87524 v -4.94957 h -1.43247 c -1.28357,0 -1.47806,-0.0455 -1.86965,-0.43718 -0.427,-0.42699 -0.54872,-1.02365 -0.3266,-1.60248 0.19754,-0.51477 1.06129,-0.80926 2.3735,-0.80926 h 1.25522 v -5.67872 -5.67924 l -1.44177,-0.0656 c -1.31822,-0.0599 -1.47837,-0.10788 -1.86966,-0.56276 -0.52529,-0.6107 -0.54381,-1.17255 -0.0589,-1.78903 0.34653,-0.44053 0.46065,-0.46923 1.86966,-0.46923 h 1.50068 v -10.68358 -10.68307 h -1.50068 c -1.40901,0 -1.52313,-0.0287 -1.86966,-0.46922 -0.4849,-0.61648 -0.46638,-1.17834 0.0589,-1.78904 0.39129,-0.45488 0.55144,-0.5034 1.86966,-0.56327 l 1.44177,-0.0651 v -5.59036 -5.58984 h -1.43247 c -1.28357,0 -1.47806,-0.0456 -1.86965,-0.43718 -0.47404,-0.47404 -0.56811,-1.24713 -0.20878,-1.71514 0.39589,-0.51565 0.98134,-0.6966 2.25258,-0.6966 h 1.25832 v -1.31159 c 0,-1.66595 0.36938,-2.24947 1.4242,-2.24947 1.05483,0 1.42472,0.58352 1.42472,2.24947 v 1.31155 h 5.69785 5.69784 v -1.39319 c 0,-1.22631 0.0492,-1.44006 0.41186,-1.78077 0.60106,-0.56468 1.59027,-0.52533 2.06809,0.0822 0.29748,0.37818 0.36897,0.72314 0.36897,1.78025 v 1.31155 h 5.50096 5.50095 l 0.0651,-1.44178 c 0.057,-1.25536 0.11956,-1.4859 0.48369,-1.78077 0.57287,-0.46387 1.51759,-0.43934 1.97455,0.0512 0.30113,0.32322 0.36329,0.62715 0.36329,1.78077 v 1.39062 h 6.05389 6.0539 v -1.31155 c 0,-1.66595 0.36937,-2.24947 1.4242,-2.24947 1.05483,0 1.42472,0.58352 1.42472,2.24947 v 1.31155 h 5.87561 5.11855 a 41.735351,41.735351 0 0 0 -31.60479,-14.48232 z m -25.32817,74.80783 v 0.0687 a 41.735351,41.735351 0 0 0 2.8484,1.98955 v -0.0708 a 41.735351,41.735351 0 0 1 -2.8484,-1.98748 z m 2.84892,-57.47659 v 5.60896 5.60896 h 5.69785 5.69784 v -5.60896 -5.60896 h -5.69784 z m 14.24461,0 v 5.60896 5.60896 h 5.51956 5.52008 v -5.60896 -5.60896 h -5.52008 z m 13.88856,0 v 5.60896 5.60896 h 6.05389 6.0539 v -5.60896 -5.60896 h -6.0539 z m 14.95671,0 v 5.60896 5.60896 h 5.87561 5.87613 v -5.60896 -5.60896 h -5.87613 z m 14.60066,1.99833 v 3.60495 5.60379 l 4.38836,0.0274 a 41.735351,41.735351 0 0 0 -0.14779,-0.44339 41.735351,41.735351 0 0 0 -0.48215,-1.32136 41.735351,41.735351 0 0 0 -0.66197,-1.62523 41.735351,41.735351 0 0 0 -0.12661,-0.29094 41.735351,41.735351 0 0 0 -2.96984,-5.55521 z m 4.49895,9.56686 a 41.735351,41.735351 0 0 1 0.67748,2.32388 41.735351,41.735351 0 0 0 -0.67748,-2.32388 z m -21.94853,2.497 -6.00946,0.047 -6.00945,0.047 -0.0465,10.41642 c -0.0254,5.729 -0.008,10.51621 0.0393,10.63863 0.0658,0.17194 1.44314,0.22272 6.05544,0.22272 h 5.9707 v -10.68617 z m 17.44958,0.004 v 10.68358 10.68359 h 4.97799 a 41.735351,41.735351 0 0 0 1.53427,-11.10733 41.735351,41.735351 0 0 0 -0.7121,-7.65018 41.735351,41.735351 0 0 0 -0.0388,-0.19947 41.735351,41.735351 0 0 0 -0.47646,-2.15233 41.735351,41.735351 0 0 0 -0.0641,-0.25786 z m 4.97799,21.36717 a 41.735351,41.735351 0 0 1 -0.89349,2.83393 h 0.0388 a 41.735351,41.735351 0 0 0 0.8878,-2.83393 z m -0.89349,2.83393 -4.0845,0.0253 v 5.69267 2.67374 a 41.735351,41.735351 0 0 0 4.0845,-8.39174 z m -4.0845,8.39174 a 41.735351,41.735351 0 0 1 -4.46846,5.86786 h 0.0791 a 41.735351,41.735351 0 0 0 4.3894,-5.7707 z m -4.46846,5.86786 h -4.25659 -5.87561 v 8.07238 a 41.735351,41.735351 0 0 0 10.1322,-8.07238 z m -10.1322,8.07238 a 41.735351,41.735351 0 0 1 -2.84892,1.47485 v 0.0832 a 41.735351,41.735351 0 0 0 2.84892,-1.47381 z m -2.84892,1.47485 v -0.67542 -8.87181 h -6.0539 -6.05389 v 8.90282 c 0,1.81239 -0.002,3.07438 -0.006,4.22817 a 41.735351,41.735351 0 0 0 12.11398,-3.58376 z m -12.11399,3.58376 a 41.735351,41.735351 0 0 1 -2.77193,0.29559 c 2.7e-4,0.0329 8e-4,0.0456 0.001,0.078 a 41.735351,41.735351 0 0 0 2.77037,-0.29404 c 1.2e-4,-0.0331 5.3e-4,-0.046 5.3e-4,-0.0796 z m -2.77193,0.29559 c -0.0114,-1.19131 -0.0208,-2.58946 -0.0315,-4.52893 l -0.0491,-8.89765 h -5.51491 -5.51491 v 8.77415 c 0,2.0594 -0.0172,2.68238 -0.0253,3.91035 a 41.735351,41.735351 0 0 0 8.24808,0.84956 41.735351,41.735351 0 0 0 2.88768,-0.10748 z m -11.13575,-0.74208 a 41.735351,41.735351 0 0 1 -2.80913,-0.67128 41.735351,41.735351 0 0 0 -5.3e-4,0 c 8e-5,0.0282 5.3e-4,0.047 5.3e-4,0.0749 a 41.735351,41.735351 0 0 0 2.8081,0.6718 c 1.9e-4,-0.0286 7.9e-4,-0.0466 10e-4,-0.0754 z m -2.80965,-0.67128 c -0.003,-0.99796 -0.007,-1.78229 -0.008,-3.15484 l -0.006,-8.85838 h -5.69785 -5.69784 v 6.93705 a 41.735351,41.735351 0 0 0 11.40963,5.07617 z M 397.38168,132.056 v 10.68565 10.68617 l 5.6534,-0.047 5.65289,-0.047 0.046,-10.63915 0.046,-10.63862 h -5.69939 z m 14.24461,0 v 10.68307 10.68358 h 5.51956 5.52008 V 142.7392 132.05613 h -5.52008 z m 28.84527,0 v 10.68307 10.68358 h 5.87561 5.87613 V 142.7392 132.05613 h -5.87613 z m -43.08988,24.21557 v 5.69785 5.69784 h 5.69785 5.69784 v -5.69784 -5.69785 h -5.69784 z m 14.24461,0 v 5.69785 5.69784 h 5.51956 5.52008 v -5.69784 -5.69785 h -5.52008 z m 13.88856,0 v 5.69785 5.69784 h 6.05389 6.0539 v -5.69784 -5.69785 h -6.0539 z m 14.95671,0 v 5.69785 5.69784 h 5.87561 5.87613 v -5.69784 -5.69785 h -5.87613 z"
       id="path68103-2-7"
       inkscape:export-filename="/home/santi/dev/flutter/timetable24/assets/app_icon.png"
       inkscape:export-xdpi="96"
       inkscape:export-ydpi="96" />
    <path
       style="color:#000000;opacity:1;fill:#d40600;stroke-width:3;stroke-linecap:round;-inkscape-stroke:none;paint-order:fill markers stroke"
       d="m 411.62632,117.98877 h 11.03961 c 0,0 10e-6,1e-5 10e-6,2e-5 v 35.43398 c 0,10e-6 -10e-6,10e-6 -10e-6,10e-6 h -11.03961 c -1e-5,0 -2e-5,0 -2e-5,-10e-6 v -35.43398 c 0,-10e-6 10e-6,-2e-5 2e-5,-2e-5 z"
       id="rect4567-0"
       inkscape:export-filename="/home/santi/dev/flutter/timetable24/assets/app_icon.png"
       inkscape:export-xdpi="96"
       inkscape:export-ydpi="96" />
    <path
       style="color:#000000;fill:#00ad13;stroke-width:3;stroke-linecap:round;-inkscape-stroke:none;paint-order:fill markers stroke"
       d="m 397.38169,132.05612 h 11.39566 c 0,0 10e-6,1e-5 10e-6,2e-5 v 35.61123 c 0,1e-5 -10e-6,2e-5 -10e-6,2e-5 h -11.39566 c -10e-6,0 -2e-5,-1e-5 -2e-5,-2e-5 v -35.61123 c 0,-1e-5 1e-5,-2e-5 2e-5,-2e-5 z"
       id="rect4779-9"
       inkscape:export-filename="/home/santi/dev/flutter/timetable24/assets/app_icon.png"
       inkscape:export-xdpi="96"
       inkscape:export-ydpi="96" />
    <path
       style="color:#000000;fill:#ff00af;stroke-width:3;stroke-linecap:round;-inkscape-stroke:none;paint-order:fill markers stroke"
       d="m 425.60373,132.14501 h 12.01888 c 10e-6,0 2e-5,10e-6 2e-5,2e-5 v 21.27774 c 0,10e-6 -1e-5,10e-6 -2e-5,10e-6 h -12.01888 c 0,0 -10e-6,0 -10e-6,-10e-6 v -21.27774 c 0,-1e-5 10e-6,-2e-5 10e-6,-2e-5 z"
       id="rect6607-3"
       inkscape:export-filename="/home/santi/dev/flutter/timetable24/assets/app_icon.png"
       inkscape:export-xdpi="96"
       inkscape:export-ydpi="96" />
    <path
       style="color:#000000;fill:#ffd800;stroke-width:3;stroke-linecap:round;-inkscape-stroke:none;paint-order:fill markers stroke"
       d="m 397.38169,117.98877 h 11.39566 c 0,0 10e-6,1e-5 10e-6,2e-5 v 11.21789 c 0,1e-5 -10e-6,1e-5 -10e-6,1e-5 h -11.39566 c -10e-6,0 -2e-5,0 -2e-5,-1e-5 v -11.21789 c 0,-10e-6 1e-5,-2e-5 2e-5,-2e-5 z"
       id="rect6953-6"
       inkscape:export-filename="/home/santi/dev/flutter/timetable24/assets/app_icon.png"
       inkscape:export-xdpi="96"
       inkscape:export-ydpi="96" />
    <path
       style="color:#000000;fill:#ffffff;stroke-width:3;stroke-linecap:round;-inkscape-stroke:none;paint-order:fill markers stroke;fill-opacity:0.90196079"
       d="m 425.51487,117.98877 h 12.10776 c 10e-6,0 10e-6,1e-5 10e-6,2e-5 v 11.21789 c 0,1e-5 0,1e-5 -10e-6,1e-5 h -12.10776 c -10e-6,0 -2e-5,0 -2e-5,-1e-5 v -11.21789 c 0,-10e-6 10e-6,-2e-5 2e-5,-2e-5 z"
       id="rect6955-0"
       inkscape:export-filename="/home/santi/dev/flutter/timetable24/assets/app_icon.png"
       inkscape:export-xdpi="96"
       inkscape:export-ydpi="96" />
    <path
       style="color:#000000;fill:#ffd800;stroke-width:3;stroke-linecap:round;-inkscape-stroke:none;paint-order:fill markers stroke"
       d="m 440.47156,117.98877 h 11.75171 c 10e-6,0 2e-5,1e-5 2e-5,2e-5 v 11.21789 c 0,1e-5 -1e-5,1e-5 -2e-5,1e-5 h -11.75171 c 0,0 -1e-5,0 -1e-5,-1e-5 v -11.21789 c 0,-10e-6 1e-5,-2e-5 1e-5,-2e-5 z"
       id="rect6957-6"
       inkscape:export-filename="/home/santi/dev/flutter/timetable24/assets/app_icon.png"
       inkscape:export-xdpi="96"
       inkscape:export-ydpi="96" />
    <path
       style="color:#000000;fill:#0081ed;stroke-width:3;stroke-linecap:round;-inkscape-stroke:none;paint-order:fill markers stroke"
       d="m 440.47156,132.05612 h 11.75171 c 10e-6,0 2e-5,1e-5 2e-5,2e-5 v 35.61123 c 0,1e-5 -1e-5,2e-5 -2e-5,2e-5 h -11.75171 c 0,0 -1e-5,-1e-5 -1e-5,-2e-5 v -35.61123 c 0,-1e-5 1e-5,-2e-5 1e-5,-2e-5 z"
       id="rect6959-2"
       inkscape:export-filename="/home/santi/dev/flutter/timetable24/assets/app_icon.png"
       inkscape:export-xdpi="96"
       inkscape:export-ydpi="96" />
    <path
       style="color:#000000;fill:#ffd800;stroke-width:3;stroke-linecap:round;-inkscape-stroke:none;paint-order:fill markers stroke"
       d="m 425.51487,156.2717 h 12.10776 c 10e-6,0 10e-6,1e-5 10e-6,1e-5 v 11.39566 c 0,1e-5 0,2e-5 -10e-6,2e-5 h -12.10776 c -10e-6,0 -2e-5,-1e-5 -2e-5,-2e-5 v -11.39566 c 0,0 10e-6,-1e-5 2e-5,-1e-5 z"
       id="rect6961-6"
       inkscape:export-filename="/home/santi/dev/flutter/timetable24/assets/app_icon.png"
       inkscape:export-xdpi="96"
       inkscape:export-ydpi="96" />
    <path
       style="color:#000000;fill:#ffffff;stroke-width:3;stroke-linecap:round;-inkscape-stroke:none;paint-order:fill markers stroke;fill-opacity:0.90196079"
       d="m 411.62632,156.2717 h 11.03961 c 0,0 10e-6,1e-5 10e-6,1e-5 v 11.39566 c 0,1e-5 -10e-6,2e-5 -10e-6,2e-5 h -11.03961 c -1e-5,0 -2e-5,-1e-5 -2e-5,-2e-5 v -11.39566 c 0,0 10e-6,-1e-5 2e-5,-1e-5 z"
       id="rect6963-1"
       inkscape:export-filename="/home/santi/dev/flutter/timetable24/assets/app_icon.png"
       inkscape:export-xdpi="96"
       inkscape:export-ydpi="96" />
  </g>
</svg>
